<svg width="600" height="200" viewBox="0 0 600 200" fill="none" xmlns="http://www.w3.org/2000/svg">
<rect width="600" height="200" fill="white"/>
<path d="M286.4 132.52C281.387 132.52 276.96 131.693 273.12 130.04C269.333 128.333 266.133 126.067 263.52 123.24C260.96 120.36 259.013 117.133 257.68 113.56C256.4 109.933 255.76 106.173 255.76 102.28V100.52C255.76 96.84 256.4 93.24 257.68 89.72C258.96 86.2 260.827 83.0267 263.28 80.2C265.787 77.3733 268.853 75.1333 272.48 73.48C276.16 71.7733 280.373 70.92 285.12 70.92C290.24 70.92 294.773 71.88 298.72 73.8C302.667 75.6667 305.84 78.3067 308.24 81.72C310.64 85.08 312.053 89 312.48 93.48H301.04C300.667 90.9733 299.733 88.84 298.24 87.08C296.747 85.2667 294.853 83.88 292.56 82.92C290.32 81.96 287.84 81.48 285.12 81.48C282.4 81.48 279.92 81.96 277.68 82.92C275.493 83.88 273.627 85.24 272.08 87C270.533 88.76 269.333 90.8667 268.48 93.32C267.68 95.7733 267.28 98.4933 267.28 101.48C267.28 104.733 267.733 107.64 268.64 110.2C269.547 112.76 270.827 114.947 272.48 116.76C274.133 118.52 276.133 119.88 278.48 120.84C280.827 121.747 283.467 122.2 286.4 122.2C290.293 122.2 293.707 121.4 296.64 119.8C299.573 118.147 301.707 116.013 303.04 113.4L301.04 122.6V107.56H311.52V120.52C309.013 124.307 305.6 127.267 301.28 129.4C296.96 131.48 292 132.52 286.4 132.52ZM284.56 109.8V101.32H316.4V109.8H284.56ZM351.848 132.52C346.568 132.52 342.035 131.587 338.248 129.72C334.461 127.853 331.368 125.427 328.968 122.44C326.621 119.453 324.888 116.2 323.768 112.68C322.648 109.16 322.088 105.773 322.088 102.52V100.76C322.088 97.1333 322.648 93.56 323.768 90.04C324.941 86.52 326.728 83.32 329.128 80.44C331.528 77.56 334.568 75.2667 338.248 73.56C341.981 71.8 346.381 70.92 351.448 70.92C356.728 70.92 361.315 71.88 365.208 73.8C369.155 75.6667 372.301 78.3333 374.648 81.8C376.995 85.2133 378.408 89.2133 378.888 93.8H367.448C367.021 91.1333 366.061 88.8933 364.568 87.08C363.128 85.2133 361.288 83.8267 359.048 82.92C356.808 81.96 354.275 81.48 351.448 81.48C348.568 81.48 346.008 81.9867 343.768 83C341.528 83.96 339.661 85.3467 338.168 87.16C336.675 88.9733 335.528 91.1067 334.728 93.56C333.981 96.0133 333.608 98.7333 333.608 101.72C333.608 104.6 333.981 107.267 334.728 109.72C335.528 112.173 336.701 114.333 338.248 116.2C339.795 118.013 341.688 119.427 343.928 120.44C346.221 121.453 348.861 121.96 351.848 121.96C356.221 121.96 359.901 120.893 362.888 118.76C365.928 116.573 367.768 113.533 368.408 109.64H379.848C379.315 113.8 377.901 117.613 375.608 121.08C373.315 124.547 370.168 127.32 366.168 129.4C362.168 131.48 357.395 132.52 351.848 132.52ZM415.754 132.52C410.474 132.52 405.941 131.587 402.154 129.72C398.368 127.853 395.274 125.427 392.874 122.44C390.528 119.453 388.794 116.2 387.674 112.68C386.554 109.16 385.994 105.773 385.994 102.52V100.76C385.994 97.1333 386.554 93.56 387.674 90.04C388.848 86.52 390.634 83.32 393.034 80.44C395.434 77.56 398.474 75.2667 402.154 73.56C405.888 71.8 410.288 70.92 415.354 70.92C420.634 70.92 425.221 71.88 429.114 73.8C433.061 75.6667 436.208 78.3333 438.554 81.8C440.901 85.2133 442.314 89.2133 442.794 93.8H431.354C430.928 91.1333 429.968 88.8933 428.474 87.08C427.034 85.2133 425.194 83.8267 422.954 82.92C420.714 81.96 418.181 81.48 415.354 81.48C412.474 81.48 409.914 81.9867 407.674 83C405.434 83.96 403.568 85.3467 402.074 87.16C400.581 88.9733 399.434 91.1067 398.634 93.56C397.888 96.0133 397.514 98.7333 397.514 101.72C397.514 104.6 397.888 107.267 398.634 109.72C399.434 112.173 400.608 114.333 402.154 116.2C403.701 118.013 405.594 119.427 407.834 120.44C410.128 121.453 412.768 121.96 415.754 121.96C420.128 121.96 423.808 120.893 426.794 118.76C429.834 116.573 431.674 113.533 432.314 109.64H443.754C443.221 113.8 441.808 117.613 439.514 121.08C437.221 124.547 434.074 127.32 430.074 129.4C426.074 131.48 421.301 132.52 415.754 132.52Z" fill="url(#paint0_linear_10_65)"/>
<path d="M286.8 128.28C281.467 128.28 276.933 127.373 273.2 125.56C269.467 123.747 266.453 121.373 264.16 118.44C261.867 115.453 260.187 112.2 259.12 108.68C258.107 105.107 257.6 101.613 257.6 98.2V97.24C257.6 93.56 258.16 89.9333 259.28 86.36C260.453 82.7867 262.187 79.56 264.48 76.68C266.773 73.7467 269.68 71.4267 273.2 69.72C276.72 68.0133 280.827 67.16 285.52 67.16C290.053 67.16 294.053 68.0133 297.52 69.72C301.04 71.3733 303.867 73.72 306 76.76C308.187 79.8 309.52 83.3467 310 87.4H307.44C306.96 83.6133 305.707 80.3867 303.68 77.72C301.707 75.0533 299.147 73.0267 296 71.64C292.853 70.2533 289.36 69.56 285.52 69.56C281.36 69.56 277.68 70.3333 274.48 71.88C271.333 73.3733 268.693 75.4533 266.56 78.12C264.48 80.7333 262.88 83.7467 261.76 87.16C260.693 90.52 260.16 94.04 260.16 97.72C260.16 101.133 260.64 104.52 261.6 107.88C262.613 111.24 264.187 114.28 266.32 117C268.453 119.667 271.2 121.827 274.56 123.48C277.92 125.08 282 125.88 286.8 125.88C291.493 125.88 295.653 125.053 299.28 123.4C302.907 121.693 305.787 119.373 307.92 116.44L306.56 120.04V102.84H309.12V118.84C306.827 121.667 303.787 123.96 300 125.72C296.267 127.427 291.867 128.28 286.8 128.28ZM284.56 103.64V101.4H314.8V103.64H284.56ZM352.336 128.28C347.376 128.28 343.082 127.373 339.456 125.56C335.829 123.747 332.842 121.373 330.496 118.44C328.149 115.453 326.416 112.2 325.296 108.68C324.176 105.107 323.616 101.613 323.616 98.2V97.24C323.616 93.56 324.176 89.9333 325.296 86.36C326.469 82.7867 328.229 79.56 330.576 76.68C332.922 73.7467 335.856 71.4267 339.376 69.72C342.896 68.0133 347.002 67.16 351.696 67.16C356.229 67.16 360.256 68.0133 363.776 69.72C367.296 71.3733 370.149 73.72 372.336 76.76C374.522 79.8 375.856 83.3467 376.336 87.4H373.776C373.296 83.6133 372.042 80.3867 370.016 77.72C367.989 75.0533 365.376 73.0267 362.176 71.64C359.029 70.2533 355.536 69.56 351.696 69.56C347.536 69.56 343.856 70.3333 340.656 71.88C337.509 73.3733 334.842 75.4533 332.656 78.12C330.522 80.7333 328.896 83.7467 327.776 87.16C326.709 90.52 326.176 94.04 326.176 97.72C326.176 101.133 326.709 104.52 327.776 107.88C328.842 111.24 330.442 114.28 332.576 117C334.762 119.667 337.482 121.827 340.736 123.48C344.042 125.08 347.909 125.88 352.336 125.88C358.309 125.88 363.322 124.333 367.376 121.24C371.482 118.147 374.016 113.747 374.976 108.04H377.536C376.896 112.093 375.456 115.64 373.216 118.68C370.976 121.72 368.096 124.093 364.576 125.8C361.056 127.453 356.976 128.28 352.336 128.28ZM415.695 128.28C410.735 128.28 406.442 127.373 402.815 125.56C399.188 123.747 396.202 121.373 393.855 118.44C391.508 115.453 389.775 112.2 388.655 108.68C387.535 105.107 386.975 101.613 386.975 98.2V97.24C386.975 93.56 387.535 89.9333 388.655 86.36C389.828 82.7867 391.588 79.56 393.935 76.68C396.282 73.7467 399.215 71.4267 402.735 69.72C406.255 68.0133 410.362 67.16 415.055 67.16C419.588 67.16 423.615 68.0133 427.135 69.72C430.655 71.3733 433.508 73.72 435.695 76.76C437.882 79.8 439.215 83.3467 439.695 87.4H437.135C436.655 83.6133 435.402 80.3867 433.375 77.72C431.348 75.0533 428.735 73.0267 425.535 71.64C422.388 70.2533 418.895 69.56 415.055 69.56C410.895 69.56 407.215 70.3333 404.015 71.88C400.868 73.3733 398.202 75.4533 396.015 78.12C393.882 80.7333 392.255 83.7467 391.135 87.16C390.068 90.52 389.535 94.04 389.535 97.72C389.535 101.133 390.068 104.52 391.135 107.88C392.202 111.24 393.802 114.28 395.935 117C398.122 119.667 400.842 121.827 404.095 123.48C407.402 125.08 411.268 125.88 415.695 125.88C421.668 125.88 426.682 124.333 430.735 121.24C434.842 118.147 437.375 113.747 438.335 108.04H440.895C440.255 112.093 438.815 115.64 436.575 118.68C434.335 121.72 431.455 124.093 427.935 125.8C424.415 127.453 420.335 128.28 415.695 128.28Z" fill="white" fill-opacity="0.12"/>
<path d="M165.953 127.6L168.653 120.28L135.953 105.58V97L163.553 84.46V92.62L146.993 99.88C146.193 100.24 145.353 100.54 144.473 100.78C143.593 101.02 142.893 101.18 142.373 101.26C142.893 101.34 143.593 101.5 144.473 101.74C145.353 101.94 146.193 102.22 146.993 102.58L171.233 113.26L186.653 71.2H195.953L192.173 81.4L225.953 96.94V105.52L198.353 118.06V109.9L214.913 102.64C215.713 102.28 216.553 101.98 217.433 101.74C218.313 101.5 219.013 101.34 219.533 101.26C219.013 101.18 218.313 101.04 217.433 100.84C216.553 100.6 215.713 100.3 214.913 99.94L189.593 88.48L175.253 127.6H165.953Z" fill="#3B82F6"/>
<defs>
<linearGradient id="paint0_linear_10_65" x1="400.301" y1="30.5661" x2="281.199" y2="147.934" gradientUnits="userSpaceOnUse">
<stop stop-color="#22D3EE"/>
<stop offset="0.5" stop-color="#3B82F6"/>
<stop offset="1" stop-color="#6366F1"/>
</linearGradient>
</defs>
</svg>
